<?xml version="1.0" encoding="UTF-8"?>
<svg id="b" data-name="Layer 2" xmlns="http://www.w3.org/2000/svg" viewBox="0 0 1969.44 1118.81">
  <defs>
    <style>
      .d {
        fill: #c78b11;
      }

      .e {
        fill: #fec120;
      }

      .f {
        fill: #595b5e;
      }

      .g {
        fill: #7a7b7d;
      }

      .h {
        fill: #55575a;
      }

      .i {
        fill: #515356;
      }
    </style>
  </defs>
  <g id="c" data-name="Layer 1">
    <g>
      <path class="e" d="M479.05,433.32c-1.45,1.62-2.83,3.32-4.37,4.86-56.35,56.36-112.72,112.68-169.06,169.05-20.02,20.03-39.94,40.15-59.95,60.19-1.67,1.67-2.99,3.82-5.41,4.65-1.64-2.02-1.74-4.44-1.75-6.88-.5-76.46-.41-152.93-.15-229.39,.13-1.28,.51-2.51,.95-3.71,.08-2.63,.23-5.26,.23-7.89,.01-138.12,0-276.25,.03-414.37,0-3.25-.51-6.58,.78-9.76,2.26-.4,3.02,1.53,4.16,2.64,6.43,6.3,12.76,12.71,19.13,19.07,101.34,101.15,202.69,202.3,304.03,303.47,1.7,1.69,3.22,3.56,4.83,5.34,.11,4.11-3.17,6.09-5.57,8.5-27.59,27.68-55.25,55.3-82.89,82.92-3.15,3.15-6.42,6.19-4.98,11.33Z"/>
      <path class="i" d="M1614.5,816.95c-13.23,17.49-29.02,29.14-48.18,36.17-19.75,7.25-39.98,8.44-60.21,3.07-30.64-8.14-46.03-30.22-52.37-59.85-2.07-9.68-2.84-19.51-2.81-29.43,.11-36.03-.06-72.06,.16-108.09,.03-5.13-1.23-6.64-6.48-6.55-19.33,.33-38.68,.24-58.01,.05-4.13-.04-5.64,.86-5.62,5.37,.18,41.3,.07,82.61,.16,123.91,0,3.92,.52,7.9,1.34,11.74,2.37,11.19,9.61,17.42,21.04,18.35,5.93,.48,11.85,.24,17.7-1.02,3.7-.8,5.88-.49,6.29,4.47,.99,12.02,2.68,23.98,4.38,35.93,.43,2.99-.05,4.61-3.12,5.13-20.71,3.53-41.44,5.2-61.98-.81-27.5-8.05-43.54-27.57-46.27-56-.44-4.58-.65-9.2-.65-13.8-.04-78.65,.04-157.31-.17-235.96-.02-5.81,1.42-7.38,7.24-7.23,16.25,.42,32.52,.3,48.78,.05,4.32-.07,5.53,1.16,5.47,5.47-.23,18.67,.12,37.35-.23,56.02-.11,5.58,1.01,7.38,7.07,7.33,38.89-.32,77.79-.04,116.69-.3,5.84-.04,7.72,1.23,7.68,7.45-.29,44.82-.18,89.64-.11,134.46,0,5.26,.2,10.56,.92,15.76,3.39,24.27,20.67,37.84,45.25,35.76,31.48-2.66,54.51-27.7,54.53-59.34,.02-42.4,.11-84.81-.13-127.21-.03-5.44,1.26-7.02,6.82-6.89,16.69,.39,33.4,.25,50.1,.06,3.92-.04,5.28,.92,5.27,5.1-.12,78-.12,155.99,0,233.99,0,4.03-1.02,5.25-5.13,5.2-16.92-.22-33.84-.21-50.76,0-3.83,.05-4.8-1.16-4.72-4.83,.23-10.66,.08-21.33,.08-33.52Z"/>
      <path class="i" d="M675.55,648.84c13.15-17.06,28.56-28.59,47.21-35.61,20.77-7.81,42.09-9.09,63.34-2.95,29.02,8.39,43.7,29.85,50.28,58.02,2.61,11.19,3.22,22.59,3.25,34,.1,48.77-.06,97.53,.18,146.3,.03,5.67-1.65,6.87-6.98,6.74-15.37-.36-30.77-.46-46.13,.03-6.59,.21-8.74-1.2-8.68-8.34,.37-45.47,.24-90.94,.13-136.41-.01-5.46-.38-11.02-1.45-16.36-5.45-27.31-26.37-35.08-48.52-32.27-29.94,3.79-51.08,28.97-51.09,59.18-.01,42.4-.1,84.79,.12,127.19,.03,5.21-.83,7.17-6.64,7.01-16.47-.45-32.96-.28-49.43-.07-4.15,.05-5.61-.91-5.6-5.39,.14-77.76,.13-155.53,.02-233.29,0-4.18,.98-5.7,5.43-5.63,16.48,.25,32.96,.29,49.43-.02,4.7-.09,5.31,1.77,5.22,5.71-.22,10.2-.07,20.41-.07,32.15Z"/>
      <path class="i" d="M1804.83,606.72c26.89,.34,53.36,3.57,79.29,11.04,4.48,1.29,5.86,2.84,4.57,7.59-2.98,11-5.53,22.12-7.92,33.27-.96,4.5-2.23,5.81-7.33,4.58-27.84-6.74-56.02-10.81-84.81-8.45-4.4,.36-8.7,1.13-12.86,2.6-13.03,4.6-16.21,20.03-6.03,29.54,5.05,4.72,11.35,7.44,17.58,10.18,22.66,9.97,46.25,17.74,68.53,28.63,10.69,5.22,21.18,10.82,29.29,19.76,18.34,20.21,17.91,58.57-.95,81.05-14.87,17.72-34.92,26.11-57.02,30.01-44.3,7.8-86.34-1.61-127.46-17.47-2.96-1.14-3.89-2.45-2.7-5.88,3.89-11.17,7.56-22.44,10.74-33.82,1.25-4.47,2.93-4.72,6.82-3.35,20.96,7.38,42.41,12.87,64.58,15.06,15.13,1.49,30.32,2.14,44.92-3.3,11.83-4.41,17.14-15.03,13.08-25.62-2.46-6.42-8.01-9.66-13.72-12.62-13.85-7.17-28.58-12.29-42.89-18.4-17.34-7.4-34.43-15.16-50.49-25.27-34.22-21.54-29.79-73.85-9.93-93.66,12.49-12.46,27.92-18.58,44.73-22.09,13.18-2.75,26.54-3.47,39.97-3.35Z"/>
      <path class="e" d="M239.17,671.9c-1.8-1.57-3.69-3.05-5.37-4.73-58.09-58.04-116.15-116.11-174.24-174.15-18.48-18.46-37.07-36.83-55.55-55.29-1.46-1.46-3.59-2.52-4.01-5.53,1.41,0,2.64,0,3.87,0,68.29,0,136.58,0,204.87,0,1.31,0,2.62,.16,3.94,.24,.62,.53,1.09,1.17,1.41,1.92,3.26,14.84,4.01,30.02,5.78,45.05,4.34,36.86,8.38,73.75,12.58,110.63,2.85,25.07,6.2,50.1,7.21,75.35,.09,2.16,.49,4.39-.48,6.5Z"/>
      <path class="i" d="M1238.38,607.19c19.45-.55,38.47,2.07,57.02,8.06,3.82,1.23,5.03,2.79,3.97,6.98-2.98,11.68-5.53,23.47-8.02,35.26-.73,3.48-2.01,3.8-5.39,3.15-22.74-4.35-45.61-7.14-68.6-1.95-31.18,7.04-50.94,29.83-53.76,61.86-1.83,20.7-.13,40.85,11.58,58.85,14.6,22.42,36.9,29.83,62.15,30.96,16.16,.73,31.97-1.78,47.46-6.2,4.43-1.26,5.99-.38,6.87,4.35,2.17,11.63,5.06,23.12,7.69,34.65,.6,2.63,1.36,4.73-2.56,5.95-46.19,14.38-91.71,15.88-135.07-8.83-44.64-25.43-64.43-72.68-59.63-120.98,6.45-64.75,56.86-107.53,120.47-112.08,5.24-.37,10.53-.05,15.79-.05Z"/>
      <path class="e" d="M479.05,433.32c-2.81-1.39-2.93-3.38-1.62-6,1.22-2.45,3.23-4.14,5.08-5.99,27.95-27.98,55.94-55.93,83.88-83.91,2.16-2.16,4.07-4.56,6.1-6.84,7.37,7.19,14.8,14.32,22.1,21.58,24.75,24.61,49.46,49.25,74.14,73.92,1.8,1.79,4.14,3.2,5.03,5.93-2.28,1.55-4.75,.78-7.05,.78-59.71,.08-119.42,.09-179.13,.14-2.84,0-5.69,.25-8.53,.39Z"/>
      <path class="d" d="M239.17,671.9c-1.67-15.61-3.3-31.22-5-46.82-1.86-17.13-3.75-34.25-5.68-51.37-2.02-17.98-4.08-35.96-6.16-53.93-1.4-12.13-2.9-24.25-4.3-36.38-1.8-15.59-3.55-31.2-5.29-46.8-.12-1.08,0-2.19,0-3.29,9.21-1.04,18.41-1.09,27.62,.03-.03,79.57-.06,159.14-.09,238.72-.48,.75-.82,.5-1.1-.16Z"/>
      <path class="h" d="M1944.4,835.66c0,5.59,.01,11.17-.01,16.76,0,1.31-.03,2.77-1.92,2.71-2.32-.07-2.02-1.88-2.02-3.36-.03-7.23-.04-14.46,0-21.7,.01-1.62-.56-3.69,2.21-3.85,2.16-.12,3.59,.28,4.44,2.74,2.25,6.51,4.87,12.89,7.84,20.63,2.89-7.51,5.35-13.5,7.47-19.61,.91-2.64,2.04-4.37,5.06-3.73,2.99,.64,1.68,3.14,1.72,4.79,.16,7.01,.09,14.02,.04,21.04,0,1.18,.44,2.84-1.51,3-2.3,.19-2.22-1.56-2.23-3.11-.01-5.47,0-10.94-1.11-16.75-2.1,5.49-4.15,11-6.32,16.46-.6,1.5-.69,3.6-3.21,3.49-2.41-.1-2.51-2.06-3.12-3.64-2.08-5.39-4.16-10.78-6.24-16.17-.37,.09-.73,.19-1.1,.28Z"/>
      <path class="f" d="M1924.58,842.32c0-2.18-.24-4.4,.04-6.55,.6-4.5-.93-6.5-5.66-5.84-1.54,.21-3.93,.66-3.82-2.11,.09-2.35,2.23-1.57,3.55-1.59,5.46-.09,10.93-.06,16.39-.02,1.2,.01,2.85-.39,3.03,1.51,.16,1.67-1.05,2.47-2.49,2.2-7.45-1.37-7.35,3.25-7.06,8.43,.25,4.57,.07,9.17,.02,13.76-.01,1.23,.28,2.79-1.61,2.99-2.23,.23-2.38-1.33-2.38-2.96,0-3.28,0-6.55,0-9.83Z"/>
      <path class="e" d="M240.36,433.34c-9.21,0-18.41-.02-27.62-.03-.04-.29-.06-.58-.06-.87,8.88-.12,17.76-.25,26.63-.37,.35,.42,.7,.84,1.05,1.26Z"/>
      <path class="i" d="M1078.94,693.48c-.44-40.25-20.88-66.93-59.07-79.34-15.36-4.99-31.23-7.03-47.31-7.35-29.72-.58-59.23,1.56-88.45,7.21-2.64,.51-5.87,.07-5.29,4.69,1.55,12.41,2.93,24.84,4.11,37.29,.43,4.56,3.06,4.44,6.35,3.95,15.21-2.27,30.51-3.62,45.85-4.37,17.32-.85,34.7-1.71,51.86,1.89,14.41,3.02,26.03,9.58,29.33,25.44,2.03,9.78,.69,19.71,.96,29.57,.1,3.6-2.7,2.77-4.72,2.78-12.75,.05-25.49-.12-38.24,.06-16.67,.23-33.37-.85-50.01,1.43-32.14,4.4-52.64,23.75-58.29,55.44-6.02,33.74,10.02,65.23,40.19,78.86,30.63,13.84,84.44,12.94,113.76-21.88,0,7.9,.32,14.19-.1,20.44-.32,4.8,1.47,5.81,5.94,5.73,16.04-.25,32.08-.21,48.12-.02,3.82,.05,5.28-.65,5.27-4.96-.17-52.29,.31-104.58-.25-156.86Zm-136.13,118.38c-11.08-4.63-16.86-14.01-16.45-26.71,.44-13.69,6.2-22.19,17.77-26.47,6.29-2.33,12.82-2.83,19.41-2.92,7.03-.09,14.06-.02,21.08-.02,9.22,0,18.45,.11,27.67-.05,3.4-.06,4.96,.54,5.13,4.57,1.83,41.08-36.38,67.57-74.62,51.59Z"/>
      <path class="i" d="M585.94,703.48c-9.16-56.59-47.79-93.21-103.39-96.48-43.98-2.58-80.07,13.02-105.1,50.28-18.47,27.51-24.51,58.28-21.2,90.99,5.05,49.87,30.01,85.12,77.92,101.65,46.22,15.95,92.56,10.69,138.48-2.76,3.3-.97,3.65-2.57,2.79-5.75-3.14-11.63-6.08-23.32-8.75-35.06-.86-3.8-2.09-5.03-6.1-3.9-10.14,2.85-20.51,4.71-30.97,5.95-23.15,2.74-46.38,4.96-69.19-2.04-22.67-6.95-39.17-20.33-44.22-44.8-1.69-8.17-1.3-8.58,6.88-8.58,26.36,0,52.72,0,79.08,0,26.8,0,53.6-.09,80.4,.09,4.32,.03,6.11-.71,6.06-5.62-.14-14.71-.34-29.37-2.7-43.96Zm-61.46,6.48c-17.13,.03-34.25,.02-51.38,.02-17.35,0-34.69-.11-52.04,.08-4.14,.05-5.07-.8-4.33-5.14,7.27-43.01,41.41-57.52,76.73-48.16,20.23,5.36,35.69,27.8,36.06,49.5,.08,4.52-2.56,3.7-5.05,3.71Z"/>
      <path class="d" d="M481.11,432c31.72-31.74,62.7-62.73,94.74-94.79-8.82,12.91-16.81,24.71-24.89,36.44-11.78,17.11-23.8,34.05-35.32,51.33-3.39,5.08-6.92,7.71-13.28,7.16-6.89-.6-13.87-.14-21.25-.14Z"/>
      <g>
        <rect class="g" x="355.4" y="1007.93" width="13.78" height="108.89"/>
        <path class="g" d="M441.21,1058.72l-15.44-6.64c-8.63-3.65-18.09-7.63-18.09-18.09,0-9.79,8.14-15.93,20.25-15.93,10.13,0,18.09,3.98,24.73,10.29l7.47-8.96c-7.8-7.97-19.26-13.45-32.2-13.45-19.75,0-34.19,12.28-34.19,28.88s11.79,23.73,22.08,28.05l15.6,6.8c10.29,4.65,18.09,8.13,18.09,19.25s-8.47,17.76-22.74,17.76c-11.29,0-22.24-5.48-30.04-13.61l-8.3,9.63c9.46,9.79,22.91,16.1,38.18,16.1,22.91,0,37.02-13.78,37.02-31.04,0-16.1-9.79-23.57-22.41-29.05Z"/>
        <polygon class="g" points="496.13 1065.53 537.46 1065.53 537.46 1053.74 496.13 1053.74 496.13 1019.55 545.1 1019.55 545.1 1007.93 482.36 1007.93 482.36 1116.82 546.76 1116.82 546.76 1105.03 496.13 1105.03 496.13 1065.53"/>
        <polygon class="g" points="556.87 1019.55 589.74 1019.55 589.74 1116.82 603.68 1116.82 603.68 1019.55 636.54 1019.55 636.54 1007.93 556.87 1007.93 556.87 1019.55"/>
        <path class="g" d="M756.2,1038.47c0-22.57-15.93-30.54-38.18-30.54h-34.03v108.89h13.78v-45.98h19.75l26.23,45.98h15.61l-27.72-47.47c14.94-3.65,24.56-13.94,24.56-30.87Zm-40.17,21.08h-18.26v-40.5h18.26c16.93,0,26.39,5.15,26.39,19.42s-9.46,21.08-26.39,21.08Z"/>
        <path class="g" d="M803.99,1034.15c-12.95,0-24.23,5.64-31.7,10.46l5.31,9.46c6.31-4.32,14.77-8.63,24.07-8.63,13.28,0,16.6,9.96,16.6,20.25-34.36,3.82-49.47,12.61-49.47,30.21,0,14.44,10.13,22.91,23.57,22.91,10.13,0,19.09-5.31,26.72-11.62h.5l1.16,9.63h11.29v-49.47c0-20.08-8.3-33.2-28.05-33.2Zm14.27,62.91c-7.8,6.97-14.11,10.79-21.91,10.79s-14.27-3.82-14.27-12.95c0-10.29,9.29-16.93,36.18-20.25v22.41Z"/>
        <path class="g" d="M905.9,1029.67l.66,13.78c-7.14-5.81-13.28-9.3-22.57-9.3-18.42,0-35.02,16.27-35.02,42.49s13.11,42.16,33.36,42.16c9.46,0,18.09-5.31,24.4-11.46h.5l1.16,9.46h11.29v-118.18h-13.78v31.04Zm0,66.56c-6.64,7.47-13.11,11.12-20.58,11.12-14.11,0-22.24-11.62-22.24-30.87s10.29-30.87,23.24-30.87c6.64,0,12.78,2.32,19.59,8.47v42.16Z"/>
        <path class="g" d="M974.44,1034.15c-18.42,0-36.19,16.1-36.19,42.49s17.1,42.16,38.68,42.16c10.95,0,19.58-3.82,26.55-8.3l-4.81-8.96c-5.98,3.82-12.45,6.31-20.08,6.31-15.43,0-25.89-10.95-26.89-28.05h54.44c.33-1.99,.5-4.98,.5-7.8,0-23.07-11.62-37.85-32.2-37.85Zm-22.91,35.85c1.66-15.93,11.95-25.06,23.24-25.06,12.61,0,19.92,8.8,19.92,25.06h-43.15Z"/>
        <path class="g" d="M1049.95,1070.34c-9.13-3.49-17.93-6.31-17.93-13.94,0-6.14,4.65-11.62,14.77-11.62,7.14,0,12.95,2.99,18.42,7.14l6.47-8.63c-6.14-4.98-14.94-9.13-25.07-9.13-17.43,0-27.72,9.96-27.72,22.91,0,13.61,12.62,19.09,24.07,23.24,8.8,3.32,18.42,6.97,18.42,15.27,0,6.97-5.31,12.62-15.93,12.62-9.63,0-16.77-3.99-23.74-9.63l-6.8,9.13c7.63,6.31,18.59,11.12,30.04,11.12,19.09,0,29.55-10.96,29.55-24.07,0-15.27-12.95-20.09-24.57-24.4Z"/>
      </g>
    </g>
  </g>
</svg>