<?xml version="1.0" encoding="UTF-8"?>
<svg id="Layer_1" data-name="Layer 1" xmlns="http://www.w3.org/2000/svg" viewBox="0 0 1080 1080">
  <defs>
    <style>
      .cls-1 {
        fill: #fff;
      }

      .cls-2 {
        fill: #003171;
      }

      .cls-3 {
        fill: #c4a76a;
      }
    </style>
  </defs>
  <path class="cls-2" d="M1062.75,528.89C1058.72,250.08,831.15,11.64,532.25,17.6c-146.8,2.92-271.82,59.79-372.78,166.47C55.19,294.24,9.51,426.03,18.25,577.49c14.57,252.73,230.58,483.52,518.35,485,292.74,2.37,530.32-245.5,526.15-533.61Zm-229.45-240.79c22.91,25.93,38.81,54.81,54.51,87.18-11.3,.19-20.91,.58-30.51,.31-1.62-.05-3.61-2.66-4.68-4.52-6.07-10.59-11.93-21.3-17.8-32.01-.69-1.26-1.44-2.72-1.45-4.09-.1-15.04-.06-30.07-.06-46.87Zm-49.34,166.07c.19-68.25,.58-136.51,.96-204.76,.08-15.15,.59-30.31,.47-45.46-.52-8.11,4.39-9.08,11.16-9.07,13.91-.89,16.19,1.16,16.22,15.19,.27,87.8,.22,175.61,.49,263.41,.09,5.25-1.68,7.48-6.98,7.31-6.63-.21-22.32,0-22.32,0,0,0-.02-17.97,0-26.62ZM487.15,156.31c72.79-10.96,143.33-2,210.7,28.23,15.62,7.01,30.55,15.63,45.42,24.18,2.79,1.6,5.07,6.23,5.36,9.65,.75,8.87,.25,17.85,.25,28.47-5.99-3.74-10.64-6.52-15.17-9.5-42.77-28.11-89.37-45.58-140.24-52.4-24.94-3.35-49.72-5.79-74.77-2.91-35.59,4.09-70.9,9.92-103.52,25.62-20.13,9.69-39.48,20.98-59.36,31.2-2.02,1.04-6.31,.68-7.8-.8-5.77-5.71-10.83-12.14-16.36-18.54,47.53-33.6,99.16-54.73,155.5-63.21Zm-255.68,504.59c1.35,3.19,2.77,6.67,2.82,10.03,.28,17.4,.13,34.8,.13,52.75-20.96-19.24-54.46-103.24-58.97-159.87-6.9-86.73,9.19-167.39,56.66-240.8,.86,.06,1.73,.13,2.59,.19,0,8.29-.65,16.65,.13,24.87,1.98,20.94-3.98,39.95-11.2,59.28-12.05,32.26-19.12,65.7-20.38,100.39-1.95,53.24,7.52,104.17,28.22,153.15Zm61.65-397.61V901.35c-1.58,.81-1.83,1.05-2.07,1.04-8.67-.45-19.93,2.14-25.19-2.33-4.37-3.71-2.06-15.73-2.06-24.07-.1-219.76-.11-439.52-.14-659.28,0-10.43,0-20.86,1.9-32.63,80.01,98.48,160.01,196.97,240.98,296.63-11.45,0-20.49,.79-29.28-.34-4.31-.55-9.23-3.79-12.08-7.28-29.28-35.89-58.09-72.16-87.22-108.18-25.66-31.72-51.54-63.25-77.39-94.82-1.54-1.88-3.62-3.33-7.46-6.8Zm382.95,608.53c-51.86,20.62-106.19,26.69-161.27,22.38-64.37-5.04-123.38-26.6-177.69-62.1-14.43-9.43-19.15-45.46-19.61-50.74,19.42,13.28,37.18,26.53,55.98,38.06,41.32,25.33,86.56,39.79,134.73,44.34,48.59,4.59,96.72,1.47,143.15-14.7,19.18-6.68,37.66-15.45,56.15-23.94,5.86-2.69,9.46-2.54,13.17,2.81,3.94,5.68,8.44,10.96,14.12,18.24-20.49,9-39.36,17.97-58.73,25.67Zm134.69,27.26c-88.3-108.79-176.59-217.58-265.33-326.93,17.14-6.78,30.78-4.08,41.48,8.92,38.89,47.26,77.6,94.65,116.29,142.06,23.03,28.21,45.85,56.59,68.92,84.77,2.31,2.83,5.79,4.7,8.66,7.07,1.28-.61,1.47-.7,2.76-1.32v-241.42c.76,0,1.51,.01,2.27,.02,.46-.33,.89-.9,1.38-.96,26.32-3.06,25.19-6.96,25.17,21.59-.08,98.91,.26,197.81,.44,296.72,0,2.82,0,5.65-2.04,9.48Zm26.52-146.11c1.89-20.15-5.58-39.92,6.43-60.38,26.97-45.98,42.34-96.21,44.36-149.97,.02-.53-.39-1.08-1.03-2.71-4.65-.26-9.8-.79-14.94-.79-148.57-.04-297.14-.03-445.7-.04q-16.61,0-16.62-16.83c0-4.01,.36-8.01,.59-12.82h506.36c5.34,91.51-23.5,171.78-79.44,243.54Z"/>
  <path class="cls-3" d="M465.18,473.09c2.85,3.49,7.76,6.73,12.08,7.28,8.8,1.12,17.84,.34,29.28,.34-80.96-99.66-160.97-198.14-240.98-296.63-1.9,11.77-1.9,22.2-1.9,32.63,.03,219.76,.04,439.52,.14,659.28,0,8.34-2.31,20.36,2.06,24.07,5.27,4.47,16.53,1.89,25.19,2.33,.24,.01,.49-.23,2.07-1.04V263.29c3.84,3.47,5.92,4.92,7.46,6.8,25.84,31.57,51.73,63.1,77.39,94.82,29.13,36.01,57.95,72.28,87.22,108.18Z"/>
  <path class="cls-1" d="M410.36,509.44c-.23,4.8-.59,8.81-.59,12.82q-.02,16.81,16.62,16.83c148.57,0,297.14,0,445.7,.04,5.15,0,10.29,.53,14.94,.79,.64,1.63,1.05,2.18,1.03,2.71-2.02,53.76-17.39,104-44.36,149.97-12.01,20.47-4.54,40.24-6.43,60.38,55.94-71.76,84.78-152.03,79.44-243.54H410.36Z"/>
  <path class="cls-3" d="M787.18,571.3c-.49,.06-.92,.63-1.38,.96-.76,0-1.51-.01-2.27-.02v241.42c-1.28,.61-1.47,.7-2.76,1.32-2.86-2.38-6.34-4.25-8.66-7.07-23.07-28.18-45.89-56.56-68.92-84.77-38.7-47.41-77.41-94.81-116.29-142.06-10.7-13-24.35-15.69-41.48-8.92,88.74,109.34,177.04,218.14,265.33,326.93,2.04-3.83,2.04-6.66,2.04-9.48-.18-98.91-.52-197.81-.44-296.72,.02-28.54,1.16-24.65-25.17-21.59Z"/>
  <path class="cls-1" d="M707.5,825.11c-18.49,8.49-36.97,17.26-56.15,23.94-46.43,16.17-94.55,19.29-143.15,14.7-48.16-4.54-93.41-19.01-134.73-44.34-18.81-11.53-36.56-24.78-55.98-38.06,.46,5.28,5.18,41.31,19.61,50.74,54.31,35.5,113.32,57.06,177.69,62.1,55.08,4.31,109.41-1.76,161.27-22.38,19.37-7.7,38.23-16.66,58.73-25.67-5.68-7.28-10.19-12.56-14.12-18.24-3.71-5.35-7.3-5.5-13.17-2.81Z"/>
  <path class="cls-1" d="M355.8,238.86c19.88-10.22,39.23-21.51,59.36-31.2,32.62-15.7,67.92-21.53,103.52-25.62,25.05-2.88,49.83-.44,74.77,2.91,50.87,6.83,97.47,24.29,140.24,52.4,4.53,2.98,9.19,5.76,15.17,9.5,0-10.62,.5-19.6-.25-28.47-.29-3.42-2.56-8.05-5.36-9.65-14.87-8.54-29.8-17.17-45.42-24.18-67.36-30.23-137.91-39.19-210.7-28.23-56.34,8.48-107.97,29.61-155.5,63.21,5.53,6.4,10.59,12.82,16.36,18.54,1.49,1.48,5.78,1.84,7.8,.8Z"/>
  <path class="cls-1" d="M223.64,407.36c7.22-19.33,13.18-38.34,11.2-59.28-.78-8.22-.13-16.57-.13-24.87-.86-.06-1.73-.13-2.59-.19-47.47,73.41-63.57,154.07-56.66,240.8,4.51,56.62,38,140.63,58.97,159.87,0-17.95,.15-35.35-.13-52.75-.05-3.37-1.47-6.84-2.82-10.03-20.7-48.98-30.17-99.9-28.22-153.15,1.27-34.7,8.33-68.14,20.38-100.39Z"/>
  <path class="cls-3" d="M806.29,480.79c5.3,.17,7.07-2.06,6.98-7.31-.27-87.8-.22-175.61-.49-263.41-.03-14.03-2.31-16.08-16.22-15.19-6.77,0-11.69,.96-11.16,9.07,.13,15.15-.38,30.31-.47,45.46-.38,68.25-.77,136.51-.96,204.76-.02,8.65,0,26.62,0,26.62,0,0,15.7-.22,22.32,0Z"/>
  <path class="cls-1" d="M834.82,339.06c5.87,10.7,11.73,21.42,17.8,32.01,1.07,1.86,3.05,4.48,4.68,4.52,9.6,.27,19.21-.12,30.51-.31-15.7-32.37-31.6-61.25-54.51-87.18,0,16.8-.04,31.83,.06,46.87,0,1.37,.76,2.83,1.45,4.09Z"/>
</svg>